<svg
   viewBox="0 0 200 114.801"
   xmlns="http://www.w3.org/2000/svg">
   <path
      d="m 0,114.80114 q 2.0454545,-24.318188 14.886364,-44.772728 12.840909,-20.45455 34.204545,-32.5 L 32.272727,8.4375017 Q 30.909091,6.392052 31.590909,4.119322 q 0.681818,-2.27273 2.954545,-3.40908997 1.818182,-1.13637 4.090909,-0.45455 2.272728,0.68182 3.636364,2.72726997 l 16.818182,29.09091 q 19.545454,-8.18181 40.909088,-8.18181 21.363643,0 40.909093,8.18181 l 16.81818,-29.09091 q 1.36364,-2.04544997 3.63637,-2.72726997 2.27272,-0.68182 4.0909,0.45455 2.27273,1.13635997 2.95455,3.40908997 0.68182,2.27273 -0.68182,4.3181797 L 150.90909,37.528412 q 21.36364,12.04545 34.20454,32.5 Q 197.95454,90.482952 200,114.80114 Z M 62.613636,86.505682 q 3.295454,-3.29545 3.295454,-8.06818 0,-4.77273 -3.295454,-8.06818 -3.295455,-3.29546 -8.068182,-3.29546 -4.772727,0 -8.068182,3.29546 -3.295454,3.29545 -3.295454,8.06818 0,4.77273 3.295454,8.06818 3.295455,3.29546 8.068182,3.29546 4.772727,0 8.068182,-3.29546 z m 90.909094,0 q 3.29545,-3.29545 3.29545,-8.06818 0,-4.77273 -3.29545,-8.06818 -3.29546,-3.29546 -8.06819,-3.29546 -4.77272,0 -8.06818,3.29546 -3.29545,3.29545 -3.29545,8.06818 0,4.77273 3.29545,8.06818 3.29546,3.29546 8.06818,3.29546 4.77273,0 8.06819,-3.29546 z"
      fill="#3ddc84" />
</svg>