<svg
   viewBox="0 0 200 200"
   xmlns="http://www.w3.org/2000/svg">
   <path
      d="m 199.43937,153.80872 c -0.0631,-0.4094 -0.12687,-0.81382 -0.19499,-1.21822 -0.41375,-2.50959 -0.92563,-4.99042 -1.525,-7.43688 -1.04751,-4.27348 -2.36813,-8.44509 -3.94188,-12.4848 -1.33062,-3.42092 -2.84562,-6.74932 -4.52687,-9.97522 -2.16374,-4.14222 -4.60499,-8.11818 -7.29936,-11.89974 -3.30375,-4.63477 -6.99249,-8.97638 -11.02187,-12.977346 -1.69124,-1.681391 -3.43999,-3.304028 -5.24811,-4.858534 -3.9125,-3.377159 -8.09374,-6.451792 -12.49811,-9.200149 0.0388,-0.06375 0.0731,-0.131886 0.11187,-0.195017 2.0175,-3.484667 4.03937,-6.96371 6.05687,-10.448379 1.97312,-3.40091 3.94687,-6.802447 5.92,-10.203983 1.41811,-2.441455 2.83624,-4.887786 4.24936,-7.329179 0.33625,-0.579924 0.59938,-1.179287 0.79876,-1.793339 0.55062,-1.710456 0.57499,-3.508607 0.13187,-5.180122 -0.1125,-0.41416 -0.24875,-0.818632 -0.41438,-1.213353 -0.16562,-0.39472 -0.36063,-0.779753 -0.58,-1.150096 -0.755,-1.266982 -1.83187,-2.368324 -3.18625,-3.172392 -1.19874,-0.711435 -2.53874,-1.135408 -3.91311,-1.257232 -0.575,-0.04875 -1.15501,-0.04388 -1.73001,0.01463 -0.47749,0.04869 -0.94999,0.136449 -1.41749,0.258272 -1.67125,0.443412 -3.22125,1.359551 -4.42937,2.685038 -0.43375,0.477603 -0.82375,1.003897 -1.15999,1.583758 -1.41751,2.441456 -2.83563,4.887787 -4.24875,7.32918 l -5.92062,10.204295 c -2.01687,3.484044 -4.03938,6.963712 -6.05625,10.447754 -0.21937,0.380033 -0.44375,0.76069 -0.66312,1.145096 -0.30688,-0.121259 -0.60875,-0.243145 -0.91562,-0.360029 -11.12436,-4.239732 -23.19435,-6.559303 -35.80997,-6.559303 -0.345623,0 -0.686873,0 -1.032498,0.0044 -11.217487,0.112509 -21.995599,2.061423 -32.048089,5.560467 -1.164374,0.404409 -2.314372,0.833195 -3.45437,1.281982 -0.205,-0.356279 -0.414375,-0.711934 -0.619375,-1.067589 -2.01706,-3.484043 -4.039245,-6.963711 -6.056493,-10.447754 -1.973435,-3.401536 -3.946933,-6.80301 -5.920369,-10.204421 -1.417935,-2.441456 -2.835871,-4.887724 -4.248932,-7.329179 -0.33625,-0.579862 -0.726062,-1.106155 -1.159749,-1.583758 -1.208436,-1.325487 -2.757934,-2.241627 -4.429245,-2.685039 -0.467812,-0.121823 -0.940436,-0.20958 -1.417998,-0.258271 -0.574937,-0.0585 -1.154811,-0.06338 -1.729811,-0.01463 -1.374061,0.116948 -2.714059,0.540921 -3.912745,1.257231 -1.354623,0.804068 -2.426622,1.90541 -3.186747,3.172392 -0.21925,0.370343 -0.414186,0.755376 -0.579874,1.150097 -0.165625,0.394721 -0.306937,0.799192 -0.414125,1.213352 -0.443437,1.671515 -0.419062,3.469666 0.131562,5.180123 0.199751,0.614052 0.462875,1.213414 0.799125,1.793338 1.417935,2.441393 2.835872,4.887724 4.248933,7.329304 1.973498,3.401537 3.946933,6.802448 5.920368,10.203984 2.01731,3.484668 4.039433,6.963711 6.056743,10.44838 0.01463,0.02875 0.03413,0.05813 0.04875,0.08751 -4.068745,2.528963 -7.942491,5.331073 -11.59705,8.396331 -2.18781,1.837029 -4.297682,3.762192 -6.319867,5.77486 -4.02487,4.00034 -7.713492,8.34258 -11.022051,12.97672 -2.699434,3.78157 -5.140681,7.75315 -7.299304,11.90037 -1.6810601,3.2259 -3.1964959,6.55431 -4.5267131,9.97522 -1.5738857,4.03971 -2.8943843,8.21132 -3.9420143,12.4848 -0.5993431,2.44646 -1.1060988,4.92167 -1.52515453,7.43625 -0.0682186,0.40441 -0.1315611,0.81382 -0.19490602,1.21823 C 0.35083392,155.27512 0.16079913,156.74213 0,158.2185 h 200 c -0.16125,-1.47637 -0.35125,-2.94338 -0.575,-4.40037 z"
      fill="#34a853" />
   <path
      d="m 151.93931,130.58052 c 4.00153,-2.66269 4.58282,-8.82313 1.29884,-13.75911 -3.28461,-4.93598 -9.19129,-6.77861 -13.19282,-4.11592 -4.00217,2.66269 -4.58346,8.82251 -1.29885,13.75911 3.28461,4.93598 9.19129,6.77862 13.19283,4.11592 z"
      fill="#202124" />
   <path
      d="m 61.253879,126.46426 c 3.284736,-4.93598 2.702819,-11.0958 -1.298656,-13.75849 -4.001725,-2.66332 -9.9084,-0.82006 -13.192886,4.11592 -3.284486,4.93598 -2.703006,11.0958 1.298719,13.75912 4.001725,2.66269 9.908337,0.81943 13.192823,-4.11655 z"
      fill="#202124" />
</svg>