<svg
   viewBox="0 0 200 200"
   xmlns="http://www.w3.org/2000/svg">
   <path
      d="M 80.058103,130.02179 131.92126,99.926867 80.058103,69.978213 Z M 21.913994,165.81461 C 13.294261,163.47685 6.5739963,156.61082 4.090464,148.13735 -2.5848e-7,132.50532 0,99.926867 0,99.926867 c 0,0 0,-32.578455 4.09046425848,-48.064216 2.4835323,-8.619229 9.203797,-15.339998 17.82353,-17.677262 15.485761,-4.236732 78.012871,-4.236732 78.012871,-4.236732 0,0 62.673375,0 78.159645,4.236732 8.7655,2.337264 15.33949,9.058033 17.67726,17.677262 C 200,67.348412 200,99.926867 200,99.926867 c 0,0 0,32.578453 -4.23623,48.210483 -2.33777,8.47347 -8.91176,15.3395 -17.67726,17.67726 -15.48627,4.23674 -78.159645,4.23674 -78.159645,4.23674 0,0 -62.52711,0 -78.012871,-4.23674"
      style="fill:#f03;fill-rule:nonzero" />
   <path
      d="M 80.058103,130.02179 131.92126,99.926867 80.058103,69.978213 Z"
      style="fill:#fff;fill-rule:nonzero" />
</svg>